<svg fill="none" height="15" viewBox="0 0 15 15" width="15" xmlns="http://www.w3.org/2000/svg"><g fill="#000"><path d="m11 11h-1v-1h1z"/><path d="m8 11h1v-1h-1z"/><path d="m13 11h-1v-1h1z"/><path clip-rule="evenodd" d="m3 6v-2.5c0-1.933 1.567-3.5 3.5-3.5s3.5 1.567 3.5 3.5v2.5h1.5c.8284 0 1.5.67157 1.5 1.5v.55001c1.1411.23163 2 1.24051 2 2.44999 0 1.2095-.8589 2.2184-2 2.45v.55c0 .8284-.6716 1.5-1.5 1.5h-10c-.828427 0-1.5-.6716-1.5-1.5v-6c0-.82843.671573-1.5 1.5-1.5zm1-2.5c0-1.38071 1.11929-2.5 2.5-2.5s2.5 1.11929 2.5 2.5v2.5h-5zm4.5 5.5c-.82843 0-1.5.67157-1.5 1.5 0 .8284.67157 1.5 1.5 1.5h4c.8284 0 1.5-.6716 1.5-1.5 0-.82843-.6716-1.5-1.5-1.5z" fill-rule="evenodd"/></g></svg>